  0
SECTION
  2
HEADER
  9
$ACADVER
  1
AC1006
  9
$EXTMIN
 10
0.000000
 20
0.000000
 30
0.000000
  9
$EXTMAX
 10
2283.000000
 20
1117.000000
 30
0.000000
  0
ENDSEC
  0
SECTION
  2
ENTITIES
  0
POLYLINE
  8
0
 66
1
 70
1
  0
VERTEX
  8
0
 10
177.500000
 20
1000.143551
 42
0.042848
  0
VERTEX
  8
0
 10
173.749118
 20
997.990332
 42
0.084751
  0
VERTEX
  8
0
 10
171.306239
 20
995.593582
 42
0.083786
  0
VERTEX
  8
0
 10
169.780145
 20
992.502872
 42
0.041106
  0
VERTEX
  8
0
 10
168.865470
 20
988.196764
 42
0.022796
  0
VERTEX
  8
0
 10
168.538464
 20
984.195975
 42
0.000917
  0
VERTEX
  8
0
 10
168.041115
 20
969.632799
 42
0.001608
  0
VERTEX
  8
0
 10
167.539064
 20
952.377995
 42
0.001138
  0
VERTEX
  8
0
 10
167.081733
 20
933.000000
 42
-0.001087
  0
VERTEX
  8
0
 10
165.992728
 20
886.658917
 42
-0.001995
  0
VERTEX
  8
0
 10
164.872884
 20
848.915135
 42
-0.002420
  0
VERTEX
  8
0
 10
163.702697
 20
818.528856
 42
-0.005444
  0
VERTEX
  8
0
 10
162.452880
 20
795.500000
 42
0.004647
  0
VERTEX
  8
0
 10
161.457902
 20
777.691505
 42
0.009612
  0
VERTEX
  8
0
 10
161.077583
 20
763.762135
 42
0.010543
  0
VERTEX
  8
0
 10
161.214443
 20
753.245376
 42
0.059261
  0
VERTEX
  8
0
 10
162.066944
 20
747.697982
 42
0.085702
  0
VERTEX
  8
0
 10
163.430000
 20
744.816547
 42
0.073647
  0
VERTEX
  8
0
 10
165.742094
 20
742.383290
 42
0.066940
  0
VERTEX
  8
0
 10
168.880268
 20
740.543672
 42
0.052477
  0
VERTEX
  8
0
 10
172.663061
 20
739.407928
 42
0.054341
  0
VERTEX
  8
0
 10
175.782861
 20
739.163328
 42
0.098393
  0
VERTEX
  8
0
 10
178.269148
 20
739.736274
 42
0.094534
  0
VERTEX
  8
0
 10
180.412556
 20
741.238020
 42
0.047208
  0
VERTEX
  8
0
 10
182.494543
 20
743.829604
 42
0.085745
  0
VERTEX
  8
0
 10
186.146372
 20
752.200312
 42
0.026569
  0
VERTEX
  8
0
 10
188.712161
 20
765.747836
 42
0.018635
  0
VERTEX
  8
0
 10
190.608051
 20
785.275727
 42
0.006138
  0
VERTEX
  8
0
 10
191.970612
 20
814.096792
 42
-0.002712
  0
VERTEX
  8
0
 10
193.113588
 20
842.379819
 42
-0.008805
  0
VERTEX
  8
0
 10
194.303474
 20
861.115409
 42
-0.004826
  0
VERTEX
  8
0
 10
195.536854
 20
874.678664
 42
-0.385121
  0
VERTEX
  8
0
 10
196.997896
 20
876.000000
 42
-0.310817
  0
VERTEX
  8
0
 10
201.146533
 20
873.145278
 42
-0.004422
  0
VERTEX
  8
0
 10
212.230987
 20
843.385779
 42
-0.011759
  0
VERTEX
  8
0
 10
223.095073
 20
811.056547
 42
-0.012984
  0
VERTEX
  8
0
 10
232.045786
 20
779.297528
 42
0.009633
  0
VERTEX
  8
0
 10
235.772800
 20
765.725584
 42
0.026578
  0
VERTEX
  8
0
 10
239.082476
 20
756.381555
 42
0.038059
  0
VERTEX
  8
0
 10
242.378177
 20
749.887688
 42
0.081573
  0
VERTEX
  8
0
 10
246.023742
 20
745.633476
 42
0.115303
  0
VERTEX
  8
0
 10
250.522595
 20
743.348694
 42
0.140234
  0
VERTEX
  8
0
 10
255.228292
 20
743.529135
 42
0.114299
  0
VERTEX
  8
0
 10
259.838898
 20
746.321694
 42
0.061333
  0
VERTEX
  8
0
 10
264.023535
 20
751.538080
 42
0.053867
  0
VERTEX
  8
0
 10
265.336565
 20
754.284640
 42
0.000703
  0
VERTEX
  8
0
 10
271.634197
 20
772.264362
 42
0.002022
  0
VERTEX
  8
0
 10
278.817677
 20
793.137063
 42
0.001325
  0
VERTEX
  8
0
 10
286.934844
 20
817.245856
 42
-0.000874
  0
VERTEX
  8
0
 10
299.800936
 20
855.573619
 42
-0.005529
  0
VERTEX
  8
0
 10
306.599814
 20
874.999096
 42
-0.005103
  0
VERTEX
  8
0
 10
311.158917
 20
887.187569
 42
-0.163709
  0
VERTEX
  8
0
 10
313.159924
 20
889.598839
 42
-0.273074
  0
VERTEX
  8
0
 10
314.528039
 20
889.626787
 42
-0.130419
  0
VERTEX
  8
0
 10
315.833775
 20
888.355333
 42
-0.066629
  0
VERTEX
  8
0
 10
316.986681
 20
885.675381
 42
-0.025478
  0
VERTEX
  8
0
 10
317.883620
 20
881.706459
 42
-0.020759
  0
VERTEX
  8
0
 10
319.000357
 20
873.151249
 42
-0.005238
  0
VERTEX
  8
0
 10
320.091896
 20
859.151511
 42
-0.004110
  0
VERTEX
  8
0
 10
321.234488
 20
839.845994
 42
-0.001578
  0
VERTEX
  8
0
 10
322.517060
 20
813.000000
 42
0.003473
  0
VERTEX
  8
0
 10
324.229469
 20
779.796935
 42
0.020437
  0
VERTEX
  8
0
 10
325.958942
 20
762.444892
 42
0.039677
  0
VERTEX
  8
0
 10
328.288351
 20
752.004556
 42
0.122245
  0
VERTEX
  8
0
 10
331.993989
 20
745.852165
 42
0.062403
  0
VERTEX
  8
0
 10
334.400907
 20
743.981236
 42
0.101582
  0
VERTEX
  8
0
 10
336.837273
 20
743.136801
 42
0.108117
  0
VERTEX
  8
0
 10
339.299698
 20
743.344698
 42
0.078004
  0
VERTEX
  8
0
 10
341.783205
 20
744.560704
 42
0.191488
  0
VERTEX
  8
0
 10
346.271109
 20
751.389999
 42
0.037171
  0
VERTEX
  8
0
 10
348.201493
 20
766.307835
 42
0.013993
  0
VERTEX
  8
0
 10
348.951363
 20
794.710909
 42
0.001079
  0
VERTEX
  8
0
 10
348.665572
 20
871.000000
 42
0.001039
  0
VERTEX
  8
0
 10
348.161436
 20
934.166109
 42
0.005549
  0
VERTEX
  8
0
 10
347.432117
 20
968.635383
 42
0.006882
  0
VERTEX
  8
0
 10
346.428374
 20
990.432991
 42
0.084198
  0
VERTEX
  8
0
 10
344.550923
 20
998.532367
 42
0.029343
  0
VERTEX
  8
0
 10
343.608531
 20
1000.461312
 42
0.117281
  0
VERTEX
  8
0
 10
342.721646
 20
1001.419807
 42
0.118202
  0
VERTEX
  8
0
 10
341.502067
 20
1001.872432
 42
0.030025
  0
VERTEX
  8
0
 10
339.379610
 20
1002.000000
 42
0.050069
  0
VERTEX
  8
0
 10
337.246338
 20
1001.785843
 42
0.079029
  0
VERTEX
  8
0
 10
335.527154
 20
1001.142979
 42
0.057254
  0
VERTEX
  8
0
 10
333.736928
 20
999.837840
 42
0.015608
  0
VERTEX
  8
0
 10
331.234503
 20
997.384253
 42
0.069996
  0
VERTEX
  8
0
 10
325.481267
 20
989.397874
 42
0.007978
  0
VERTEX
  8
0
 10
315.421117
 20
969.521950
 42
0.010414
  0
VERTEX
  8
0
 10
305.318210
 20
947.595576
 42
0.015560
  0
VERTEX
  8
0
 10
297.495492
 20
928.000000
 42
-0.002584
  0
VERTEX
  8
0
 10
294.448775
 20
919.752792
 42
-0.001670
  0
VERTEX
  8
0
 10
290.840125
 20
910.234375
 42
-0.001678
  0
VERTEX
  8
0
 10
287.250638
 20
900.954448
 42
-0.003172
  0
VERTEX
  8
0
 10
284.283807
 20
893.500000
 42
-0.000013
  0
VERTEX
  8
0
 10
281.264574
 20
886.052312
 42
-0.000007
  0
VERTEX
  8
0
 10
277.509502
 20
876.790549
 42
-0.000007
  0
VERTEX
  8
0
 10
273.661291
 20
867.299810
 42
-0.000010
  0
VERTEX
  8
0
 10
270.330038
 20
859.084848
 42
-0.003515
  0
VERTEX
  8
0
 10
264.594315
 20
845.221916
 42
-0.012361
  0
VERTEX
  8
0
 10
260.622203
 20
836.423152
 42
-0.017415
  0
VERTEX
  8
0
 10
257.582922
 20
830.636167
 42
-0.079640
  0
VERTEX
  8
0
 10
255.210490
 20
827.686549
 42
-0.019955
  0
VERTEX
  8
0
 10
253.918931
 20
826.610599
 42
-0.200512
  0
VERTEX
  8
0
 10
253.254864
 20
826.434726
 42
-0.190160
  0
VERTEX
  8
0
 10
252.643558
 20
826.778842
 42
-0.017704
  0
VERTEX
  8
0
 10
251.580391
 20
828.186549
 42
-0.063380
  0
VERTEX
  8
0
 10
248.562395
 20
833.915473
 42
-0.005920
  0
VERTEX
  8
0
 10
243.134483
 20
848.951853
 42
-0.005084
  0
VERTEX
  8
0
 10
235.431011
 20
871.858311
 42
-0.001222
  0
VERTEX
  8
0
 10
223.137175
 20
910.000000
 42
0.000620
  0
VERTEX
  8
0
 10
209.355553
 20
952.934533
 42
0.004962
  0
VERTEX
  8
0
 10
202.782220
 20
972.653553
 42
0.010877
  0
VERTEX
  8
0
 10
198.340657
 20
984.692474
 42
0.021168
  0
VERTEX
  8
0
 10
194.188315
 20
994.052883
 42
0.000000
  0
VERTEX
  8
0
 10
190.500000
 20
1001.500000
 42
0.000000
  0
VERTEX
  8
0
 10
186.000000
 20
1001.752321
 42
0.032989
  0
VERTEX
  8
0
 10
183.870461
 20
1001.731150
 42
0.027797
  0
VERTEX
  8
0
 10
181.634652
 20
1001.435493
 42
0.027913
  0
VERTEX
  8
0
 10
179.456496
 20
1000.895840
 42
0.034214
  0
SEQEND
  0
POLYLINE
  8
0
 66
1
 70
1
  0
VERTEX
  8
0
 10
1971.716629
 20
998.463891
 42
0.025046
  0
VERTEX
  8
0
 10
1965.171144
 20
996.895574
 42
0.044116
  0
VERTEX
  8
0
 10
1959.997056
 20
994.868324
 42
0.045473
  0
VERTEX
  8
0
 10
1955.364667
 20
992.012337
 42
0.028549
  0
VERTEX
  8
0
 10
1950.496200
 20
987.907963
 42
0.078203
  0
VERTEX
  8
0
 10
1943.168866
 20
978.411620
 42
0.068827
  0
VERTEX
  8
0
 10
1938.713357
 20
966.704491
 42
0.058538
  0
VERTEX
  8
0
 10
1937.159912
 20
952.545225
 42
0.035500
  0
VERTEX
  8
0
 10
1938.485479
 20
935.723134
 42
0.021010
  0
VERTEX
  8
0
 10
1941.504489
 20
920.161305
 42
0.047344
  0
VERTEX
  8
0
 10
1945.374392
 20
908.798423
 42
0.054127
  0
VERTEX
  8
0
 10
1950.939144
 20
899.323048
 42
0.036399
  0
VERTEX
  8
0
 10
1959.146659
 20
889.811435
 42
0.016625
  0
VERTEX
  8
0
 10
1968.761415
 20
880.803021
 42
0.026684
  0
VERTEX
  8
0
 10
1977.594425
 20
873.858810
 42
0.031706
  0
VERTEX
  8
0
 10
1985.490741
 20
869.022961
 42
0.068093
  0
VERTEX
  8
0
 10
1992.183350
 20
866.578960
 42
-0.057423
  0
VERTEX
  8
0
 10
1993.254911
 20
866.213267
 42
-0.051628
  0
VERTEX
  8
0
 10
1994.257369
 20
865.603113
 42
-0.054835
  0
VERTEX
  8
0
 10
1995.046385
 20
864.853963
 42
-0.098926
  0
VERTEX
  8
0
 10
1995.475732
 20
864.076461
 42
0.128131
  0
VERTEX
  8
0
 10
1996.662529
 20
862.192732
 42
0.011703
  0
VERTEX
  8
0
 10
2000.825034
 20
858.465281
 42
0.010098
  0
VERTEX
  8
0
 10
2007.332464
 20
853.130310
 42
0.002552
  0
VERTEX
  8
0
 10
2018.131433
 20
844.724650
 42
-0.044937
  0
VERTEX
  8
0
 10
2032.681014
 20
831.275211
 42
-0.067322
  0
VERTEX
  8
0
 10
2042.442653
 20
817.019345
 42
-0.076850
  0
VERTEX
  8
0
 10
2047.226768
 20
802.215582
 42
-0.084203
  0
VERTEX
  8
0
 10
2047.093559
 20
787.135547
 42
-0.040231
  0
VERTEX
  8
0
 10
2045.352294
 20
780.517045
 42
-0.023243
  0
VERTEX
  8
0
 10
2042.264765
 20
772.879168
 42
-0.022431
  0
VERTEX
  8
0
 10
2038.698642
 20
765.953133
 42
-0.076539
  0
VERTEX
  8
0
 10
2035.546626
 20
762.000000
 42
-0.066947
  0
VERTEX
  8
0
 10
2033.490714
 20
760.559407
 42
-0.082804
  0
VERTEX
  8
0
 10
2031.268391
 20
759.841955
 42
-0.033716
  0
VERTEX
  8
0
 10
2027.673776
 20
759.555080
 42
-0.003058
  0
VERTEX
  8
0
 10
2018.667720
 20
759.500000
 42
-0.010668
  0
VERTEX
  8
0
 10
2008.639310
 20
759.713983
 42
-0.041268
  0
VERTEX
  8
0
 10
2002.470627
 20
760.490105
 42
-0.063632
  0
VERTEX
  8
0
 10
1997.989134
 20
762.048910
 42
-0.059488
  0
VERTEX
  8
0
 10
1993.930746
 20
764.711727
 42
-0.060471
  0
VERTEX
  8
0
 10
1991.096658
 20
767.750890
 42
-0.047371
  0
VERTEX
  8
0
 10
1988.796002
 20
771.632579
 42
-0.036778
  0
VERTEX
  8
0
 10
1986.823688
 20
776.765764
 42
-0.016804
  0
VERTEX
  8
0
 10
1984.978741
 20
783.709225
 42
0.010242
  0
VERTEX
  8
0
 10
1983.158970
 20
790.938831
 42
0.024096
  0
VERTEX
  8
0
 10
1981.434037
 20
796.227923
 42
0.028773
  0
VERTEX
  8
0
 10
1979.419356
 20
800.727686
 42
0.022296
  0
VERTEX
  8
0
 10
1976.736921
 20
805.379388
 42
0.042373
  0
VERTEX
  8
0
 10
1973.439600
 20
809.695636
 42
0.051779
  0
VERTEX
  8
0
 10
1969.656923
 20
813.082706
 42
0.058560
  0
VERTEX
  8
0
 10
1965.747078
 20
815.268810
 42
0.098526
  0
VERTEX
  8
0
 10
1962.072468
 20
816.000000
 42
0.137602
  0
VERTEX
  8
0
 10
1956.848298
 20
814.534545
 42
0.140880
  0
VERTEX
  8
0
 10
1953.204779
 20
810.575408
 42
0.087859
  0
VERTEX
  8
0
 10
1951.132853
 20
803.599754
 42
0.029863
  0
VERTEX
  8
0
 10
1950.562606
 20
793.000000
 42
0.042565
  0
VERTEX
  8
0
 10
1951.779920
 20
779.665992
 42
0.047403
  0
VERTEX
  8
0
 10
1955.235193
 20
767.222631
 42
0.049235
  0
VERTEX
  8
0
 10
1960.816280
 20
756.069779
 42
0.053537
  0
VERTEX
  8
0
 10
1968.339404
 20
746.561131
 42
0.117426
  0
VERTEX
  8
0
 10
1990.001952
 20
732.958744
 42
0.070917
  0
VERTEX
  8
0
 10
2019.939519
 20
727.346378
 42
0.073792
  0
VERTEX
  8
0
 10
2048.799173
 20
730.346876
 42
0.164200
  0
VERTEX
  8
0
 10
2067.096010
 20
742.240677
 42
0.049247
  0
VERTEX
  8
0
 10
2073.513261
 20
752.241953
 42
0.036833
  0
VERTEX
  8
0
 10
2078.596772
 20
764.318435
 42
0.036501
  0
VERTEX
  8
0
 10
2081.899183
 20
777.153931
 42
0.045286
  0
VERTEX
  8
0
 10
2082.986863
 20
789.433659
 42
0.047013
  0
VERTEX
  8
0
 10
2081.883725
 20
800.874601
 42
0.033565
  0
VERTEX
  8
0
 10
2078.609094
 20
813.325172
 42
0.032410
  0
VERTEX
  8
0
 10
2073.516012
 20
825.747635
 42
0.034665
  0
VERTEX
  8
0
 10
2066.957085
 20
837.118833
 42
0.030782
  0
VERTEX
  8
0
 10
2061.683066
 20
843.998699
 42
0.013706
  0
VERTEX
  8
0
 10
2053.952330
 20
852.414637
 42
0.013636
  0
VERTEX
  8
0
 10
2045.391139
 20
860.768276
 42
0.020134
  0
VERTEX
  8
0
 10
2037.401683
 20
867.574487
 42
0.011735
  0
VERTEX
  8
0
 10
2033.216908
 20
870.702370
 42
0.004018
  0
VERTEX
  8
0
 10
2027.011127
 20
875.043016
 42
0.003991
  0
VERTEX
  8
0
 10
2020.083568
 20
879.725084
 42
0.004602
  0
VERTEX
  8
0
 10
2013.401683
 20
884.075737
 42
-0.006050
  0
VERTEX
  8
0
 10
1996.066354
 20
895.434619
 42
-0.029306
  0
VERTEX
  8
0
 10
1986.707541
 20
902.560293
 42
-0.051190
  0
VERTEX
  8
0
 10
1980.985426
 20
908.590833
 42
-0.060172
  0
VERTEX
  8
0
 10
1976.960482
 20
915.356432
 42
-0.048748
  0
VERTEX
  8
0
 10
1975.217019
 20
920.634220
 42
-0.014143
  0
VERTEX
  8
0
 10
1973.567951
 20
929.056479
 42
-0.013812
  0
VERTEX
  8
0
 10
1972.209276
 20
938.879265
 42
-0.012855
  0
VERTEX
  8
0
 10
1971.355965
 20
949.000000
 42
-0.032772
  0
VERTEX
  8
0
 10
1971.435363
 20
960.157532
 42
-0.146928
  0
VERTEX
  8
0
 10
1973.737993
 20
966.194213
 42
-0.170450
  0
VERTEX
  8
0
 10
1978.761384
 20
969.463664
 42
-0.047922
  0
VERTEX
  8
0
 10
1988.158628
 20
970.821927
 42
-0.044576
  0
VERTEX
  8
0
 10
2001.589207
 20
970.266686
 42
-0.074244
  0
VERTEX
  8
0
 10
2012.452972
 20
967.158921
 42
-0.086068
  0
VERTEX
  8
0
 10
2020.818060
 20
961.453797
 42
-0.084028
  0
VERTEX
  8
0
 10
2026.856076
 20
953.222196
 42
-0.017982
  0
VERTEX
  8
0
 10
2027.728192
 20
951.316798
 42
-0.006405
  0
VERTEX
  8
0
 10
2028.839951
 20
948.537145
 42
-0.006346
  0
VERTEX
  8
0
 10
2029.983200
 20
945.452910
 42
-0.007445
  0
VERTEX
  8
0
 10
2030.986046
 20
942.500000
 42
0.026940
  0
VERTEX
  8
0
 10
2034.270215
 20
933.940590
 42
0.114896
  0
VERTEX
  8
0
 10
2037.557145
 20
929.608069
 42
0.124662
  0
VERTEX
  8
0
 10
2042.272631
 20
927.359589
 42
0.034196
  0
VERTEX
  8
0
 10
2050.500000
 20
926.296271
 42
0.022772
  0
VERTEX
  8
0
 10
2057.753127
 20
926.190169
 42
0.185558
  0
VERTEX
  8
0
 10
2060.756406
 20
927.452333
 42
0.184949
  0
VERTEX
  8
0
 10
2062.146604
 20
930.403468
 42
0.022598
  0
VERTEX
  8
0
 10
2062.359668
 20
937.676988
 42
0.031192
  0
VERTEX
  8
0
 10
2061.761737
 20
945.300965
 42
0.038121
  0
VERTEX
  8
0
 10
2060.223454
 20
952.283625
 42
0.038346
  0
VERTEX
  8
0
 10
2057.652465
 20
958.918184
 42
0.032196
  0
VERTEX
  8
0
 10
2053.964643
 20
965.500000
 42
0.046790
  0
VERTEX
  8
0
 10
2046.783112
 20
974.590776
 42
0.028099
  0
VERTEX
  8
0
 10
2036.735326
 20
983.998293
 42
0.028203
  0
VERTEX
  8
0
 10
2025.841358
 20
992.108086
 42
0.052649
  0
VERTEX
  8
0
 10
2016.088546
 20
997.164890
 42
0.032414
  0
VERTEX
  8
0
 10
2012.463711
 20
998.319353
 42
0.031719
  0
VERTEX
  8
0
 10
2008.693796
 20
999.005778
 42
0.019922
  0
VERTEX
  8
0
 10
2003.582980
 20
999.399326
 42
0.004669
  0
VERTEX
  8
0
 10
1995.000000
 20
999.636923
 42
0.006598
  0
VERTEX
  8
0
 10
1987.662299
 20
999.674652
 42
0.010571
  0
VERTEX
  8
0
 10
1981.402388
 20
999.491836
 42
0.012390
  0
VERTEX
  8
0
 10
1976.100616
 20
999.092835
 42
0.021302
  0
SEQEND
  0
POLYLINE
  8
0
 66
1
 70
1
  0
VERTEX
  8
0
 10
780.038955
 20
989.811439
 42
0.044519
  0
VERTEX
  8
0
 10
779.258542
 20
988.808054
 42
0.035415
  0
VERTEX
  8
0
 10
778.598943
 20
987.604289
 42
0.036553
  0
VERTEX
  8
0
 10
778.146049
 20
986.391480
 42
0.071199
  0
VERTEX
  8
0
 10
778.000000
 20
985.371036
 42
0.095947
  0
VERTEX
  8
0
 10
779.347583
 20
978.413111
 42
0.008126
  0
VERTEX
  8
0
 10
786.465094
 20
961.525259
 42
0.008004
  0
VERTEX
  8
0
 10
797.428130
 20
937.691739
 42
0.002538
  0
VERTEX
  8
0
 10
814.523694
 20
902.500000
 42
0.000000
  0
VERTEX
  8
0
 10
833.222490
 20
864.500000
 42
0.000000
  0
VERTEX
  8
0
 10
832.543310
 20
813.500000
 42
0.004610
  0
VERTEX
  8
0
 10
832.325332
 20
760.281085
 42
0.032911
  0
VERTEX
  8
0
 10
834.149338
 20
734.605996
 42
0.086595
  0
VERTEX
  8
0
 10
838.329271
 20
721.533655
 42
0.279063
  0
VERTEX
  8
0
 10
845.819687
 20
717.000000
 42
0.249887
  0
VERTEX
  8
0
 10
853.888087
 20
721.300943
 42
0.090627
  0
VERTEX
  8
0
 10
859.234165
 20
733.582844
 42
0.034355
  0
VERTEX
  8
0
 10
863.208709
 20
758.039983
 42
0.004672
  0
VERTEX
  8
0
 10
867.513786
 20
809.742554
 42
-0.003048
  0
VERTEX
  8
0
 10
869.474677
 20
834.254538
 42
-0.012939
  0
VERTEX
  8
0
 10
871.116068
 20
848.874636
 42
-0.021307
  0
VERTEX
  8
0
 10
872.998638
 20
859.203328
 42
-0.030279
  0
VERTEX
  8
0
 10
875.608115
 20
868.162098
 42
-0.022885
  0
VERTEX
  8
0
 10
878.989335
 20
876.393997
 42
-0.006100
  0
VERTEX
  8
0
 10
885.127908
 20
889.176866
 42
-0.005733
  0
VERTEX
  8
0
 10
892.945257
 20
904.514578
 42
-0.004099
  0
VERTEX
  8
0
 10
902.027481
 20
921.500000
 42
0.003784
  0
VERTEX
  8
0
 10
917.197277
 20
949.827401
 42
0.022714
  0
VERTEX
  8
0
 10
924.296880
 20
964.960236
 42
0.045267
  0
VERTEX
  8
0
 10
927.333200
 20
974.680300
 42
0.133554
  0
VERTEX
  8
0
 10
926.963977
 20
981.609152
 42
0.126449
  0
VERTEX
  8
0
 10
924.611763
 20
985.276215
 42
0.122708
  0
VERTEX
  8
0
 10
920.757875
 20
987.405192
 42
0.103209
  0
VERTEX
  8
0
 10
915.786084
 20
987.677998
 42
0.068933
  0
VERTEX
  8
0
 10
910.302576
 20
986.050469
 42
0.083862
  0
VERTEX
  8
0
 10
903.781798
 20
981.651276
 42
0.040419
  0
VERTEX
  8
0
 10
897.046680
 20
974.112653
 42
0.026688
  0
VERTEX
  8
0
 10
889.126031
 20
962.410104
 42
0.008425
  0
VERTEX
  8
0
 10
878.545406
 20
944.134377
 42
-0.001481
  0
VERTEX
  8
0
 10
874.687757
 20
937.252468
 42
-0.001441
  0
VERTEX
  8
0
 10
870.754093
 20
930.330098
 42
-0.001420
  0
VERTEX
  8
0
 10
867.261890
 20
924.265646
 42
-0.005368
  0
VERTEX
  8
0
 10
865.024832
 20
920.500000
 42
-0.011748
  0
VERTEX
  8
0
 10
860.763062
 20
913.855121
 42
-0.009606
  0
VERTEX
  8
0
 10
855.905811
 20
906.949442
 42
-0.002792
  0
VERTEX
  8
0
 10
851.078689
 20
900.435984
 42
-0.456453
  0
VERTEX
  8
0
 10
850.287000
 20
900.379666
 42
-0.084531
  0
VERTEX
  8
0
 10
850.005719
 20
900.776399
 42
-0.001081
  0
VERTEX
  8
0
 10
848.677071
 20
903.555842
 42
-0.003115
  0
VERTEX
  8
0
 10
847.163556
 20
906.791522
 42
-0.002033
  0
VERTEX
  8
0
 10
845.455677
 20
910.542891
 42
0.028309
  0
VERTEX
  8
0
 10
833.434012
 20
933.647770
 42
0.017653
  0
VERTEX
  8
0
 10
816.914522
 20
959.326214
 42
0.014328
  0
VERTEX
  8
0
 10
800.134937
 20
982.070206
 42
0.107732
  0
VERTEX
  8
0
 10
789.894408
 20
990.554604
 42
0.054946
  0
VERTEX
  8
0
 10
787.020699
 20
991.660845
 42
0.083430
  0
VERTEX
  8
0
 10
784.360989
 20
991.904113
 42
0.094543
  0
VERTEX
  8
0
 10
782.011582
 20
991.269576
 42
0.092375
  0
SEQEND
  0
POLYLINE
  8
0
 66
1
 70
1
  0
VERTEX
  8
0
 10
1351.399661
 20
990.626152
 42
0.036375
  0
VERTEX
  8
0
 10
1350.158790
 20
989.951682
 42
0.033581
  0
VERTEX
  8
0
 10
1348.993294
 20
989.088027
 42
0.035299
  0
VERTEX
  8
0
 10
1348.061257
 20
988.174378
 42
0.087056
  0
VERTEX
  8
0
 10
1347.561441
 20
987.361202
 42
0.081460
  0
VERTEX
  8
0
 10
1347.241592
 20
985.895709
 42
0.000912
  0
VERTEX
  8
0
 10
1346.729581
 20
975.765478
 42
0.002799
  0
VERTEX
  8
0
 10
1346.224529
 20
964.048985
 42
0.001817
  0
VERTEX
  8
0
 10
1345.765747
 20
950.500000
 42
0.009228
  0
VERTEX
  8
0
 10
1345.169923
 20
899.826790
 42
0.003016
  0
VERTEX
  8
0
 10
1346.121310
 20
825.098390
 42
0.001108
  0
VERTEX
  8
0
 10
1347.757749
 20
747.100864
 42
0.059604
  0
VERTEX
  8
0
 10
1349.857528
 20
732.440330
 42
0.167863
  0
VERTEX
  8
0
 10
1352.299298
 20
728.824455
 42
0.091621
  0
VERTEX
  8
0
 10
1357.147460
 20
726.413437
 42
0.087045
  0
VERTEX
  8
0
 10
1362.788333
 20
725.818354
 42
0.128575
  0
VERTEX
  8
0
 10
1367.481777
 20
727.396103
 42
0.156541
  0
VERTEX
  8
0
 10
1371.502832
 20
732.366610
 42
0.063261
  0
VERTEX
  8
0
 10
1373.628332
 20
740.930448
 42
0.023208
  0
VERTEX
  8
0
 10
1374.751871
 20
756.836730
 42
0.002205
  0
VERTEX
  8
0
 10
1375.520142
 20
795.830136
 42
-0.002453
  0
VERTEX
  8
0
 10
1376.039596
 20
821.546618
 42
-0.005152
  0
VERTEX
  8
0
 10
1376.747187
 20
841.523243
 42
-0.001787
  0
VERTEX
  8
0
 10
1377.548306
 20
857.765393
 42
-0.185210
  0
VERTEX
  8
0
 10
1378.445226
 20
859.778559
 42
-0.539118
  0
VERTEX
  8
0
 10
1382.034659
 20
859.037849
 42
-0.007011
  0
VERTEX
  8
0
 10
1391.767195
 20
833.520190
 42
-0.011395
  0
VERTEX
  8
0
 10
1403.424357
 20
799.214777
 42
-0.004912
  0
VERTEX
  8
0
 10
1417.465063
 20
753.000000
 42
0.016296
  0
VERTEX
  8
0
 10
1420.722220
 20
743.095608
 42
0.046181
  0
VERTEX
  8
0
 10
1423.834533
 20
736.529101
 42
0.064741
  0
VERTEX
  8
0
 10
1427.382185
 20
731.997460
 42
0.069828
  0
VERTEX
  8
0
 10
1431.888803
 20
728.657038
 42
0.037468
  0
VERTEX
  8
0
 10
1436.129378
 20
726.745326
 42
0.079234
  0
VERTEX
  8
0
 10
1439.660642
 20
726.064395
 42
0.111025
  0
VERTEX
  8
0
 10
1442.437274
 20
726.594917
 42
0.138098
  0
VERTEX
  8
0
 10
1444.465669
 20
728.250000
 42
0.070170
  0
VERTEX
  8
0
 10
1446.309050
 20
731.862560
 42
0.003163
  0
VERTEX
  8
0
 10
1450.778521
 20
745.109995
 42
0.003600
  0
VERTEX
  8
0
 10
1457.134944
 20
764.826864
 42
0.000852
  0
VERTEX
  8
0
 10
1467.444644
 20
797.809135
 42
-0.002584
  0
VERTEX
  8
0
 10
1478.163389
 20
831.687557
 42
-0.017726
  0
VERTEX
  8
0
 10
1484.109906
 20
848.129114
 42
-0.036186
  0
VERTEX
  8
0
 10
1488.256503
 20
856.608483
 42
-0.463579
  0
VERTEX
  8
0
 10
1491.317838
 20
857.151181
 42
-0.164838
  0
VERTEX
  8
0
 10
1493.486263
 20
853.624958
 42
-0.019274
  0
VERTEX
  8
0
 10
1495.220506
 20
844.411551
 42
-0.014351
  0
VERTEX
  8
0
 10
1496.946757
 20
829.950433
 42
-0.003314
  0
VERTEX
  8
0
 10
1498.992665
 20
805.500000
 42
0.002376
  0
VERTEX
  8
0
 10
1500.706899
 20
784.540228
 42
0.004403
  0
VERTEX
  8
0
 10
1502.329100
 20
767.545272
 42
0.005381
  0
VERTEX
  8
0
 10
1503.927296
 20
753.676613
 42
0.010066
  0
VERTEX
  8
0
 10
1505.566499
 20
742.500000
 42
0.006118
  0
VERTEX
  8
0
 10
1507.226594
 20
733.271957
 42
0.039559
  0
VERTEX
  8
0
 10
1508.484078
 20
728.716022
 42
0.080918
  0
VERTEX
  8
0
 10
1510.016220
 20
725.976061
 42
0.088202
  0
VERTEX
  8
0
 10
1512.300825
 20
723.958131
 42
0.079444
  0
VERTEX
  8
0
 10
1515.852162
 20
722.502515
 42
0.056850
  0
VERTEX
  8
0
 10
1520.123219
 20
722.001111
 42
0.058752
  0
VERTEX
  8
0
 10
1524.198954
 20
722.468118
 42
0.112630
  0
VERTEX
  8
0
 10
1527.139216
 20
723.909405
 42
0.090912
  0
VERTEX
  8
0
 10
1528.478169
 20
725.469114
 42
0.086965
  0
VERTEX
  8
0
 10
1529.202773
 20
727.426364
 42
0.035067
  0
VERTEX
  8
0
 10
1529.573483
 20
730.753236
 42
0.003605
  0
VERTEX
  8
0
 10
1529.839676
 20
738.659405
 42
0.010348
  0
VERTEX
  8
0
 10
1529.883322
 20
746.248821
 42
0.001576
  0
VERTEX
  8
0
 10
1529.609317
 20
761.387450
 42
0.001764
  0
VERTEX
  8
0
 10
1529.166495
 20
779.255486
 42
0.001527
  0
VERTEX
  8
0
 10
1528.578483
 20
798.000000
 42
-0.000256
  0
VERTEX
  8
0
 10
1527.894069
 20
818.180669
 42
-0.000192
  0
VERTEX
  8
0
 10
1527.160889
 20
840.387500
 42
-0.000194
  0
VERTEX
  8
0
 10
1526.487283
 20
861.280189
 42
-0.000448
  0
VERTEX
  8
0
 10
1526.000661
 20
877.000000
 42
0.000318
  0
VERTEX
  8
0
 10
1524.340658
 20
931.076192
 42
0.001785
  0
VERTEX
  8
0
 10
1523.330567
 20
960.010968
 42
0.000487
  0
VERTEX
  8
0
 10
1522.541478
 20
980.007920
 42
0.178192
  0
VERTEX
  8
0
 10
1521.984796
 20
981.350358
 42
0.175910
  0
VERTEX
  8
0
 10
1521.319794
 20
981.693832
 42
0.007626
  0
VERTEX
  8
0
 10
1518.672948
 20
981.994881
 42
0.012198
  0
VERTEX
  8
0
 10
1515.466754
 20
982.231304
 42
0.008318
  0
VERTEX
  8
0
 10
1511.813480
 20
982.350358
 42
0.021367
  0
VERTEX
  8
0
 10
1504.781399
 20
982.161962
 42
0.083650
  0
VERTEX
  8
0
 10
1500.573298
 20
981.148109
 42
0.115276
  0
VERTEX
  8
0
 10
1497.654012
 20
979.006737
 42
0.060305
  0
VERTEX
  8
0
 10
1495.140223
 20
975.235375
 42
0.024810
  0
VERTEX
  8
0
 10
1491.821868
 20
967.761476
 42
0.003153
  0
VERTEX
  8
0
 10
1485.583046
 20
951.283258
 42
0.003108
  0
VERTEX
  8
0
 10
1477.495881
 20
929.087775
 42
0.001390
  0
VERTEX
  8
0
 10
1467.118442
 20
899.789923
 42
-0.001770
  0
VERTEX
  8
0
 10
1451.469378
 20
855.715651
 42
-0.010973
  0
VERTEX
  8
0
 10
1442.861442
 20
833.300818
 42
-0.013628
  0
VERTEX
  8
0
 10
1436.924235
 20
819.856644
 42
-0.251645
  0
VERTEX
  8
0
 10
1433.298528
 20
817.187304
 42
-0.257397
  0
VERTEX
  8
0
 10
1431.087836
 20
818.025177
 42
-0.063102
  0
VERTEX
  8
0
 10
1428.883087
 20
821.400474
 42
-0.026849
  0
VERTEX
  8
0
 10
1426.044319
 20
828.135408
 42
-0.003735
  0
VERTEX
  8
0
 10
1421.023285
 20
842.432081
 42
0.003810
  0
VERTEX
  8
0
 10
1418.524860
 20
849.542576
 42
0.004374
  0
VERTEX
  8
0
 10
1416.028012
 20
856.293204
 42
0.003949
  0
VERTEX
  8
0
 10
1413.816585
 20
861.979410
 42
0.025004
  0
VERTEX
  8
0
 10
1412.526047
 20
864.802261
 42
-0.024640
  0
VERTEX
  8
0
 10
1411.419139
 20
867.218799
 42
-0.008816
  0
VERTEX
  8
0
 10
1410.074136
 20
870.763789
 42
-0.008722
  0
VERTEX
  8
0
 10
1408.733282
 20
874.709829
 42
-0.010204
  0
VERTEX
  8
0
 10
1407.603457
 20
878.500000
 42
0.000925
  0
VERTEX
  8
0
 10
1401.787526
 20
899.420831
 42
0.003677
  0
VERTEX
  8
0
 10
1398.099195
 20
912.230247
 42
0.005400
  0
VERTEX
  8
0
 10
1394.994618
 20
922.319711
 42
0.004402
  0
VERTEX
  8
0
 10
1391.459557
 20
933.054871
 42
0.006260
  0
VERTEX
  8
0
 10
1386.248455
 20
947.812851
 42
0.005262
  0
VERTEX
  8
0
 10
1380.367246
 20
963.320822
 42
0.004334
  0
VERTEX
  8
0
 10
1374.850348
 20
977.066579
 42
0.031651
  0
VERTEX
  8
0
 10
1371.741033
 20
983.444274
 42
0.033321
  0
VERTEX
  8
0
 10
1370.656824
 20
985.086490
 42
0.024381
  0
VERTEX
  8
0
 10
1369.250917
 20
986.759401
 42
0.024808
  0
VERTEX
  8
0
 10
1367.756384
 20
988.218922
 42
0.048875
  0
VERTEX
  8
0
 10
1366.412590
 20
989.191043
 42
0.062019
  0
VERTEX
  8
0
 10
1362.886500
 20
990.701489
 42
0.046417
  0
VERTEX
  8
0
 10
1358.730829
 20
991.492388
 42
0.047597
  0
VERTEX
  8
0
 10
1354.658016
 20
991.493119
 42
0.082742
  0
SEQEND
  0
POLYLINE
  8
0
 66
1
 70
1
  0
VERTEX
  8
0
 10
1733.719956
 20
630.349779
 42
-0.096924
  0
VERTEX
  8
0
 10
1732.763054
 20
628.026098
 42
-0.154310
  0
VERTEX
  8
0
 10
1731.106452
 20
626.684534
 42
-0.061956
  0
VERTEX
  8
0
 10
1727.889981
 20
625.860673
 42
-0.006183
  0
VERTEX
  8
0
 10
1719.982467
 20
624.950261
 42
-0.023572
  0
VERTEX
  8
0
 10
1684.351199
 20
622.984067
 42
-0.000991
  0
VERTEX
  8
0
 10
1557.495224
 20
622.221841
 42
-0.000788
  0
VERTEX
  8
0
 10
1340.511060
 20
621.689859
 42
-0.000077
  0
VERTEX
  8
0
 10
816.250000
 20
621.310967
 42
0.000000
  0
VERTEX
  8
0
 10
-0.000000
 20
620.846552
 42
0.000000
  0
VERTEX
  8
0
 10
-0.000000
 20
585.423276
 42
0.000000
  0
VERTEX
  8
0
 10
0.000000
 20
550.000000
 42
0.000000
  0
VERTEX
  8
0
 10
1141.500000
 20
550.000000
 42
0.000000
  0
VERTEX
  8
0
 10
2283.000000
 20
550.000000
 42
0.000000
  0
VERTEX
  8
0
 10
2283.000000
 20
585.423043
 42
0.000000
  0
VERTEX
  8
0
 10
2283.000000
 20
620.846085
 42
0.000000
  0
VERTEX
  8
0
 10
2027.250000
 20
621.285679
 42
-0.000291
  0
VERTEX
  8
0
 10
1828.133778
 20
621.743857
 42
-0.006722
  0
VERTEX
  8
0
 10
1771.319947
 20
622.671509
 42
-0.016360
  0
VERTEX
  8
0
 10
1742.412989
 20
624.480187
 42
-0.296434
  0
VERTEX
  8
0
 10
1735.501527
 20
629.973505
 42
0.000000
  0
VERTEX
  8
0
 10
1734.339402
 20
633.447011
 42
0.000000
  0
SEQEND
  0
POLYLINE
  8
0
 66
1
 70
1
  0
VERTEX
  8
0
 10
819.913332
 20
436.968546
 42
0.009226
  0
VERTEX
  8
0
 10
809.830266
 20
436.143864
 42
0.016166
  0
VERTEX
  8
0
 10
801.530593
 20
435.038632
 42
0.013781
  0
VERTEX
  8
0
 10
795.112209
 20
433.789097
 42
0.166061
  0
VERTEX
  8
0
 10
792.995159
 20
432.494166
 42
0.162932
  0
VERTEX
  8
0
 10
791.288685
 20
428.090553
 42
0.004145
  0
VERTEX
  8
0
 10
790.459027
 20
406.486082
 42
0.005191
  0
VERTEX
  8
0
 10
789.803707
 20
373.243015
 42
0.000922
  0
VERTEX
  8
0
 10
789.337890
 20
311.000000
 42
0.001723
  0
VERTEX
  8
0
 10
789.150810
 20
225.702123
 42
0.010458
  0
VERTEX
  8
0
 10
790.130133
 20
181.532783
 42
0.018378
  0
VERTEX
  8
0
 10
792.280292
 20
154.657884
 42
0.089531
  0
VERTEX
  8
0
 10
796.705178
 20
140.105089
 42
0.110751
  0
VERTEX
  8
0
 10
802.003532
 20
133.742219
 42
0.125853
  0
VERTEX
  8
0
 10
809.279653
 20
130.619162
 42
0.053785
  0
VERTEX
  8
0
 10
821.700890
 20
130.027682
 42
0.006783
  0
VERTEX
  8
0
 10
848.542280
 20
132.002741
 42
0.006607
  0
VERTEX
  8
0
 10
870.165630
 20
134.177337
 42
0.067414
  0
VERTEX
  8
0
 10
878.880433
 20
136.384667
 42
0.161975
  0
VERTEX
  8
0
 10
883.405774
 20
140.226214
 42
0.087117
  0
VERTEX
  8
0
 10
886.095061
 20
147.119150
 42
0.016207
  0
VERTEX
  8
0
 10
886.595071
 20
150.107540
 42
0.044735
  0
VERTEX
  8
0
 10
886.688784
 20
152.237892
 42
0.053951
  0
VERTEX
  8
0
 10
886.399015
 20
154.113953
 42
0.033697
  0
VERTEX
  8
0
 10
885.681120
 20
156.220762
 42
0.134242
  0
VERTEX
  8
0
 10
881.823850
 20
161.163514
 42
0.097926
  0
VERTEX
  8
0
 10
875.507339
 20
164.183712
 42
0.047802
  0
VERTEX
  8
0
 10
864.754448
 20
165.866630
 42
0.008885
  0
VERTEX
  8
0
 10
844.750000
 20
166.706255
 42
0.000000
  0
VERTEX
  8
0
 10
821.000000
 20
167.280587
 42
0.000000
  0
VERTEX
  8
0
 10
821.002428
 20
205.890294
 42
-0.003678
  0
VERTEX
  8
0
 10
821.196835
 20
232.092561
 42
-0.007594
  0
VERTEX
  8
0
 10
821.810548
 20
252.569045
 42
-0.005442
  0
VERTEX
  8
0
 10
822.698445
 20
268.398344
 42
-0.106520
  0
VERTEX
  8
0
 10
824.037623
 20
273.070300
 42
-0.174137
  0
VERTEX
  8
0
 10
826.060626
 20
274.897489
 42
-0.021158
  0
VERTEX
  8
0
 10
831.779734
 20
276.968670
 42
-0.022265
  0
VERTEX
  8
0
 10
839.226576
 20
278.954690
 42
-0.014365
  0
VERTEX
  8
0
 10
848.000000
 20
280.618134
 42
0.004600
  0
VERTEX
  8
0
 10
859.852081
 20
282.626362
 42
0.014397
  0
VERTEX
  8
0
 10
867.763868
 20
284.278303
 42
0.020963
  0
VERTEX
  8
0
 10
873.658451
 20
285.951316
 42
0.029691
  0
VERTEX
  8
0
 10
878.725885
 20
287.962599
 42
0.058214
  0
VERTEX
  8
0
 10
884.675473
 20
291.639009
 42
0.124124
  0
VERTEX
  8
0
 10
887.942336
 20
295.900704
 42
0.149176
  0
VERTEX
  8
0
 10
888.471481
 20
300.653935
 42
0.099006
  0
VERTEX
  8
0
 10
886.407674
 20
305.781252
 42
0.150263
  0
VERTEX
  8
0
 10
882.416011
 20
309.092274
 42
0.051935
  0
VERTEX
  8
0
 10
875.158924
 20
311.260982
 42
0.029586
  0
VERTEX
  8
0
 10
863.482876
 20
312.757337
 42
0.006913
  0
VERTEX
  8
0
 10
843.765656
 20
313.832611
 42
-0.002834
  0
VERTEX
  8
0
 10
836.155790
 20
314.185377
 42
-0.004498
  0
VERTEX
  8
0
 10
829.644867
 20
314.582957
 42
-0.001192
  0
VERTEX
  8
0
 10
823.988355
 20
314.993023
 42
-0.179555
  0
VERTEX
  8
0
 10
823.406942
 20
315.259725
 42
-0.190465
  0
VERTEX
  8
0
 10
822.913985
 20
316.397103
 42
-0.000083
  0
VERTEX
  8
0
 10
821.531962
 20
359.052299
 42
-0.000083
  0
VERTEX
  8
0
 10
820.164109
 20
401.709431
 42
-0.191034
  0
VERTEX
  8
0
 10
820.582931
 20
402.872549
 42
-0.174747
  0
VERTEX
  8
0
 10
822.733137
 20
404.051808
 42
-0.004654
  0
VERTEX
  8
0
 10
833.619908
 20
405.656400
 42
-0.010117
  0
VERTEX
  8
0
 10
845.612867
 20
407.063508
 42
-0.010514
  0
VERTEX
  8
0
 10
857.500000
 20
407.963089
 42
0.002012
  0
VERTEX
  8
0
 10
871.282581
 20
408.770688
 42
0.009237
  0
VERTEX
  8
0
 10
879.264282
 20
409.418832
 42
0.015818
  0
VERTEX
  8
0
 10
884.578244
 20
410.119688
 42
0.035379
  0
VERTEX
  8
0
 10
888.539085
 20
411.061705
 42
0.195443
  0
VERTEX
  8
0
 10
893.273437
 20
414.971083
 42
0.110053
  0
VERTEX
  8
0
 10
895.330600
 20
422.253595
 42
0.107694
  0
VERTEX
  8
0
 10
894.117161
 20
429.846189
 42
0.182101
  0
VERTEX
  8
0
 10
889.859033
 20
434.572897
 42
0.101640
  0
VERTEX
  8
0
 10
882.552557
 20
436.631765
 42
0.009461
  0
VERTEX
  8
0
 10
863.748499
 20
437.632301
 42
0.012430
  0
VERTEX
  8
0
 10
841.976298
 20
437.836481
 42
0.011919
  0
SEQEND
  0
POLYLINE
  8
0
 66
1
 70
1
  0
VERTEX
  8
0
 10
1428.500000
 20
435.515142
 42
0.067917
  0
VERTEX
  8
0
 10
1422.134676
 20
430.853690
 42
0.031508
  0
VERTEX
  8
0
 10
1415.211355
 20
423.272702
 42
0.029354
  0
VERTEX
  8
0
 10
1408.551572
 20
413.912448
 42
0.028129
  0
VERTEX
  8
0
 10
1402.929610
 20
403.705730
 42
0.027920
  0
VERTEX
  8
0
 10
1399.792942
 20
396.105144
 42
0.031559
  0
VERTEX
  8
0
 10
1397.669026
 20
388.504041
 42
0.024357
  0
VERTEX
  8
0
 10
1396.164241
 20
379.219159
 42
0.008967
  0
VERTEX
  8
0
 10
1394.917520
 20
366.000000
 42
0.023816
  0
VERTEX
  8
0
 10
1393.808719
 20
327.073695
 42
0.007731
  0
VERTEX
  8
0
 10
1395.801292
 20
269.522283
 42
0.006598
  0
VERTEX
  8
0
 10
1399.381176
 20
213.013672
 42
0.043407
  0
VERTEX
  8
0
 10
1403.984983
 20
185.058816
 42
0.038171
  0
VERTEX
  8
0
 10
1410.285570
 20
166.438981
 42
0.039622
  0
VERTEX
  8
0
 10
1419.280822
 20
149.236043
 42
0.042974
  0
VERTEX
  8
0
 10
1429.693791
 20
135.449637
 42
0.092510
  0
VERTEX
  8
0
 10
1440.221786
 20
127.387613
 42
0.036199
  0
VERTEX
  8
0
 10
1446.848299
 20
124.612038
 42
0.028903
  0
VERTEX
  8
0
 10
1454.322014
 20
122.571747
 42
0.027286
  0
VERTEX
  8
0
 10
1462.440470
 20
121.310261
 42
0.024043
  0
VERTEX
  8
0
 10
1471.000000
 20
120.868911
 42
0.039768
  0
VERTEX
  8
0
 10
1484.729542
 20
121.915100
 42
0.070366
  0
VERTEX
  8
0
 10
1495.573827
 20
125.222727
 42
0.092358
  0
VERTEX
  8
0
 10
1503.022303
 20
130.548620
 42
0.137245
  0
VERTEX
  8
0
 10
1506.795139
 20
137.569909
 42
0.042220
  0
VERTEX
  8
0
 10
1507.354687
 20
141.661943
 42
0.065753
  0
VERTEX
  8
0
 10
1507.071324
 20
145.204928
 42
0.073492
  0
VERTEX
  8
0
 10
1505.928011
 20
148.262345
 42
0.070323
  0
VERTEX
  8
0
 10
1503.936066
 20
150.910088
 42
0.115773
  0
VERTEX
  8
0
 10
1498.815996
 20
154.083698
 42
0.056813
  0
VERTEX
  8
0
 10
1491.273152
 20
155.698134
 42
0.040386
  0
VERTEX
  8
0
 10
1480.958801
 20
155.869580
 42
0.016759
  0
VERTEX
  8
0
 10
1467.074936
 20
154.509884
 42
-0.006143
  0
VERTEX
  8
0
 10
1462.672529
 20
153.984179
 42
-0.009084
  0
VERTEX
  8
0
 10
1458.799052
 20
153.640884
 42
-0.004948
  0
VERTEX
  8
0
 10
1455.544285
 20
153.444281
 42
-0.152161
  0
VERTEX
  8
0
 10
1454.766854
 20
153.644092
 42
-0.145508
  0
VERTEX
  8
0
 10
1452.814754
 20
155.833173
 42
-0.003880
  0
VERTEX
  8
0
 10
1447.340368
 20
167.723098
 42
-0.008688
  0
VERTEX
  8
0
 10
1442.312679
 20
179.407253
 42
-0.027034
  0
VERTEX
  8
0
 10
1439.496149
 20
187.500000
 42
-0.027885
  0
VERTEX
  8
0
 10
1435.291724
 20
205.860683
 42
-0.017092
  0
VERTEX
  8
0
 10
1432.298470
 20
227.869473
 42
-0.013550
  0
VERTEX
  8
0
 10
1430.279965
 20
255.136178
 42
-0.006612
  0
VERTEX
  8
0
 10
1429.109120
 20
290.000000
 42
-0.004309
  0
VERTEX
  8
0
 10
1428.753027
 20
320.358698
 42
-0.007288
  0
VERTEX
  8
0
 10
1429.044645
 20
345.793790
 42
-0.007375
  0
VERTEX
  8
0
 10
1429.860922
 20
365.793968
 42
-0.043964
  0
VERTEX
  8
0
 10
1431.352284
 20
376.121627
 42
-0.030574
  0
VERTEX
  8
0
 10
1433.922977
 20
384.660914
 42
-0.033598
  0
VERTEX
  8
0
 10
1437.451958
 20
392.548186
 42
-0.036014
  0
VERTEX
  8
0
 10
1441.381455
 20
398.817486
 42
-0.112349
  0
VERTEX
  8
0
 10
1445.119027
 20
402.063701
 42
-0.084853
  0
VERTEX
  8
0
 10
1446.454718
 20
402.509445
 42
-0.040367
  0
VERTEX
  8
0
 10
1448.268124
 20
402.640428
 42
-0.028666
  0
VERTEX
  8
0
 10
1450.709078
 20
402.479329
 42
-0.010970
  0
VERTEX
  8
0
 10
1454.078379
 20
401.986780
 42
0.057020
  0
VERTEX
  8
0
 10
1463.036556
 20
401.509912
 42
0.047741
  0
VERTEX
  8
0
 10
1472.444524
 20
402.990965
 42
0.049974
  0
VERTEX
  8
0
 10
1480.079806
 20
405.790345
 42
0.236586
  0
VERTEX
  8
0
 10
1482.834072
 20
409.376920
 42
0.081368
  0
VERTEX
  8
0
 10
1482.921960
 20
412.528940
 42
0.062626
  0
VERTEX
  8
0
 10
1482.037230
 20
415.860230
 42
0.053146
  0
VERTEX
  8
0
 10
1480.170878
 20
419.351967
 42
0.033825
  0
VERTEX
  8
0
 10
1477.325977
 20
422.982332
 42
0.060235
  0
VERTEX
  8
0
 10
1470.820353
 20
428.667074
 42
0.057397
  0
VERTEX
  8
0
 10
1463.044380
 20
432.746678
 42
0.049874
  0
VERTEX
  8
0
 10
1453.584455
 20
435.352888
 42
0.029992
  0
VERTEX
  8
0
 10
1442.000000
 20
436.622945
 42
0.006710
  0
VERTEX
  8
0
 10
1436.423982
 20
436.822722
 42
0.026073
  0
VERTEX
  8
0
 10
1432.971277
 20
436.720003
 42
0.042188
  0
VERTEX
  8
0
 10
1430.529096
 20
436.310327
 42
0.061561
  0
SEQEND
  0
POLYLINE
  8
0
 66
1
 70
1
  0
VERTEX
  8
0
 10
2103.771499
 20
435.250000
 42
0.049371
  0
VERTEX
  8
0
 10
2102.131270
 20
432.964578
 42
0.017469
  0
VERTEX
  8
0
 10
2100.237249
 20
429.404259
 42
0.017798
  0
VERTEX
  8
0
 10
2098.552380
 20
425.614861
 42
0.035740
  0
VERTEX
  8
0
 10
2097.550019
 20
422.500000
 42
0.058953
  0
VERTEX
  8
0
 10
2096.827761
 20
416.614807
 42
0.008467
  0
VERTEX
  8
0
 10
2096.980670
 20
404.469848
 42
0.009524
  0
VERTEX
  8
0
 10
2097.681103
 20
390.060087
 42
0.008042
  0
VERTEX
  8
0
 10
2098.957247
 20
374.849039
 42
-0.003307
  0
VERTEX
  8
0
 10
2101.003222
 20
352.952723
 42
-0.004075
  0
VERTEX
  8
0
 10
2102.609725
 20
332.504716
 42
-0.004342
  0
VERTEX
  8
0
 10
2103.684486
 20
315.071166
 42
-0.013199
  0
VERTEX
  8
0
 10
2103.998946
 20
303.203380
 42
0.000000
  0
VERTEX
  8
0
 10
2104.000000
 20
291.906760
 42
0.000000
  0
VERTEX
  8
0
 10
2077.563925
 20
292.203380
 42
0.000000
  0
VERTEX
  8
0
 10
2051.127850
 20
292.500000
 42
0.000000
  0
VERTEX
  8
0
 10
2048.090656
 20
295.411481
 42
-0.099601
  0
VERTEX
  8
0
 10
2044.678729
 20
300.314259
 42
-0.046919
  0
VERTEX
  8
0
 10
2042.273170
 20
307.680064
 42
-0.020115
  0
VERTEX
  8
0
 10
2039.920866
 20
320.485485
 42
-0.002408
  0
VERTEX
  8
0
 10
2036.000496
 20
349.000000
 42
0.003469
  0
VERTEX
  8
0
 10
2030.827896
 20
386.039536
 42
0.015497
  0
VERTEX
  8
0
 10
2026.973643
 20
407.626594
 42
0.025188
  0
VERTEX
  8
0
 10
2023.358132
 20
421.325685
 42
0.097210
  0
VERTEX
  8
0
 10
2019.143528
 20
429.000000
 42
0.030234
  0
VERTEX
  8
0
 10
2017.140803
 20
431.122056
 42
0.111656
  0
VERTEX
  8
0
 10
2015.562174
 20
432.050146
 42
0.070024
  0
VERTEX
  8
0
 10
2013.377645
 20
432.423498
 42
0.007363
  0
VERTEX
  8
0
 10
2008.182936
 20
432.500000
 42
0.010075
  0
VERTEX
  8
0
 10
2003.835091
 20
432.412386
 42
0.038238
  0
VERTEX
  8
0
 10
2001.137857
 20
432.096085
 42
0.058260
  0
VERTEX
  8
0
 10
1999.152786
 20
431.461168
 42
0.054827
  0
VERTEX
  8
0
 10
1997.323330
 20
430.375710
 42
0.000000
  0
VERTEX
  8
0
 10
1994.500000
 20
428.251419
 42
0.000000
  0
VERTEX
  8
0
 10
1994.655318
 20
413.375710
 42
0.014377
  0
VERTEX
  8
0
 10
1995.222911
 20
398.901188
 42
0.006866
  0
VERTEX
  8
0
 10
1996.742249
 20
380.340907
 42
0.004560
  0
VERTEX
  8
0
 10
1999.454971
 20
354.483504
 42
0.001353
  0
VERTEX
  8
0
 10
2004.069878
 20
315.000000
 42
0.001578
  0
VERTEX
  8
0
 10
2015.972248
 20
218.097239
 42
0.010830
  0
VERTEX
  8
0
 10
2023.008686
 20
170.585656
 42
0.018928
  0
VERTEX
  8
0
 10
2028.864865
 20
142.636470
 42
0.123198
  0
VERTEX
  8
0
 10
2035.567245
 20
130.057248
 42
0.049257
  0
VERTEX
  8
0
 10
2039.227464
 20
126.730881
 42
0.033783
  0
VERTEX
  8
0
 10
2043.950532
 20
123.692365
 42
0.034179
  0
VERTEX
  8
0
 10
2048.743800
 20
121.460303
 42
0.084988
  0
VERTEX
  8
0
 10
2052.524587
 20
120.702138
 42
0.294555
  0
VERTEX
  8
0
 10
2058.942347
 20
124.589107
 42
0.101798
  0
VERTEX
  8
0
 10
2061.755067
 20
135.585278
 42
0.039832
  0
VERTEX
  8
0
 10
2061.078737
 20
156.649480
 42
0.006996
  0
VERTEX
  8
0
 10
2056.105757
 20
196.000000
 42
-0.000880
  0
VERTEX
  8
0
 10
2051.668195
 20
227.965705
 42
-0.013536
  0
VERTEX
  8
0
 10
2050.456749
 20
239.024584
 42
-0.040075
  0
VERTEX
  8
0
 10
2050.445572
 20
244.810298
 42
-0.178671
  0
VERTEX
  8
0
 10
2051.842995
 20
247.842995
 42
-0.061907
  0
VERTEX
  8
0
 10
2053.000669
 20
248.744706
 42
-0.021541
  0
VERTEX
  8
0
 10
2054.864506
 20
249.750879
 42
-0.021014
  0
VERTEX
  8
0
 10
2057.033159
 20
250.693213
 42
-0.022967
  0
VERTEX
  8
0
 10
2059.210616
 20
251.419545
 42
-0.032677
  0
VERTEX
  8
0
 10
2070.067286
 20
253.741569
 42
-0.007616
  0
VERTEX
  8
0
 10
2088.553256
 20
256.161037
 42
-0.002356
  0
VERTEX
  8
0
 10
2108.412011
 20
258.358301
 42
-0.242904
  0
VERTEX
  8
0
 10
2110.909440
 20
257.386493
 42
-0.143325
  0
VERTEX
  8
0
 10
2111.267107
 20
256.623619
 42
-0.002381
  0
VERTEX
  8
0
 10
2111.968792
 20
251.947267
 42
-0.005936
  0
VERTEX
  8
0
 10
2112.699242
 20
246.458604
 42
-0.003883
  0
VERTEX
  8
0
 10
2113.417019
 20
240.114840
 42
0.011395
  0
VERTEX
  8
0
 10
2117.811223
 20
205.889142
 42
0.010443
  0
VERTEX
  8
0
 10
2123.869308
 20
170.884133
 42
0.007823
  0
VERTEX
  8
0
 10
2130.353317
 20
140.146204
 42
0.081330
  0
VERTEX
  8
0
 10
2135.198248
 20
128.218914
 42
0.079316
  0
VERTEX
  8
0
 10
2137.648215
 20
125.347989
 42
0.058976
  0
VERTEX
  8
0
 10
2141.120605
 20
123.031918
 42
0.056776
  0
VERTEX
  8
0
 10
2145.188174
 20
121.514855
 42
0.060964
  0
VERTEX
  8
0
 10
2149.395062
 20
121.000000
 42
0.032047
  0
VERTEX
  8
0
 10
2153.267581
 20
121.248457
 42
0.059905
  0
VERTEX
  8
0
 10
2156.308210
 20
122.017767
 42
0.065967
  0
VERTEX
  8
0
 10
2158.883223
 20
123.421895
 42
0.048078
  0
VERTEX
  8
0
 10
2161.321964
 20
125.591422
 42
0.107325
  0
VERTEX
  8
0
 10
2164.408734
 20
130.813636
 42
0.064234
  0
VERTEX
  8
0
 10
2165.788304
 20
137.921212
 42
0.046757
  0
VERTEX
  8
0
 10
2165.507180
 20
147.281719
 42
0.020658
  0
VERTEX
  8
0
 10
2163.475413
 20
159.500000
 42
-0.008091
  0
VERTEX
  8
0
 10
2160.839382
 20
173.213142
 42
-0.007396
  0
VERTEX
  8
0
 10
2158.562079
 20
187.420697
 42
-0.005749
  0
VERTEX
  8
0
 10
2156.268919
 20
204.607033
 42
-0.002352
  0
VERTEX
  8
0
 10
2153.532566
 20
228.000000
 42
0.001022
  0
VERTEX
  8
0
 10
2152.105952
 20
240.483657
 42
0.001321
  0
VERTEX
  8
0
 10
2150.742820
 20
251.935937
 42
0.000997
  0
VERTEX
  8
0
 10
2149.555758
 20
261.529896
 42
0.011731
  0
VERTEX
  8
0
 10
2148.998998
 20
265.250000
 42
-0.000122
  0
VERTEX
  8
0
 10
2148.546674
 20
267.857231
 42
-0.000073
  0
VERTEX
  8
0
 10
2148.010319
 20
270.955972
 42
-0.000073
  0
VERTEX
  8
0
 10
2147.477353
 20
274.040486
 42
-0.000127
  0
VERTEX
  8
0
 10
2147.036132
 20
276.600116
 42
-0.019209
  0
VERTEX
  8
0
 10
2146.559568
 20
280.188536
 42
-0.001774
  0
VERTEX
  8
0
 10
2145.753076
 20
289.117976
 42
-0.002285
  0
VERTEX
  8
0
 10
2144.877477
 20
299.777679
 42
-0.001790
  0
VERTEX
  8
0
 10
2144.021799
 20
311.350116
 42
0.003226
  0
VERTEX
  8
0
 10
2139.507834
 20
370.103396
 42
0.017549
  0
VERTEX
  8
0
 10
2135.742811
 20
401.801152
 42
0.031300
  0
VERTEX
  8
0
 10
2131.521781
 20
421.047295
 42
0.128252
  0
VERTEX
  8
0
 10
2125.493034
 20
431.252497
 42
0.097439
  0
VERTEX
  8
0
 10
2120.703722
 20
434.444163
 42
0.052941
  0
VERTEX
  8
0
 10
2113.896708
 20
436.459020
 42
0.053703
  0
VERTEX
  8
0
 10
2107.367104
 20
436.947661
 42
0.207145
  0
SEQEND
  0
POLYLINE
  8
0
 66
1
 70
1
  0
VERTEX
  8
0
 10
183.618148
 20
421.113471
 42
0.004879
  0
VERTEX
  8
0
 10
176.686410
 20
420.583665
 42
0.048210
  0
VERTEX
  8
0
 10
173.814804
 20
420.054036
 42
0.096145
  0
VERTEX
  8
0
 10
171.904546
 20
419.082648
 42
0.044892
  0
VERTEX
  8
0
 10
169.868148
 20
417.178462
 42
0.126996
  0
VERTEX
  8
0
 10
167.215159
 20
412.039627
 42
0.165230
  0
VERTEX
  8
0
 10
167.759111
 20
406.806233
 42
0.139745
  0
VERTEX
  8
0
 10
171.573464
 20
402.357352
 42
0.082995
  0
VERTEX
  8
0
 10
178.000000
 20
399.497186
 42
0.020134
  0
VERTEX
  8
0
 10
181.101552
 20
398.826830
 42
0.004199
  0
VERTEX
  8
0
 10
186.593914
 20
397.916781
 42
0.004400
  0
VERTEX
  8
0
 10
192.991119
 20
396.969534
 42
0.004145
  0
VERTEX
  8
0
 10
199.532473
 20
396.114917
 42
-0.006229
  0
VERTEX
  8
0
 10
210.149084
 20
394.682853
 42
-0.028648
  0
VERTEX
  8
0
 10
216.227887
 20
393.426436
 42
-0.051697
  0
VERTEX
  8
0
 10
219.834300
 20
392.050827
 42
-0.186283
  0
VERTEX
  8
0
 10
221.454750
 20
390.257323
 42
-0.118647
  0
VERTEX
  8
0
 10
221.734362
 20
388.122219
 42
-0.000578
  0
VERTEX
  8
0
 10
219.376376
 20
366.195374
 42
-0.001440
  0
VERTEX
  8
0
 10
215.627770
 20
332.612589
 42
-0.000193
  0
VERTEX
  8
0
 10
207.512152
 20
262.000000
 42
0.000726
  0
VERTEX
  8
0
 10
202.226324
 20
215.573411
 42
0.002905
  0
VERTEX
  8
0
 10
199.197170
 20
187.131669
 42
0.004693
  0
VERTEX
  8
0
 10
197.388551
 20
167.291371
 42
0.009262
  0
VERTEX
  8
0
 10
196.392415
 20
151.500000
 42
0.017440
  0
VERTEX
  8
0
 10
196.243470
 20
135.978937
 42
0.053849
  0
VERTEX
  8
0
 10
197.631328
 20
125.595701
 42
0.086670
  0
VERTEX
  8
0
 10
200.627982
 20
118.764224
 42
0.136194
  0
VERTEX
  8
0
 10
205.442212
 20
114.594446
 42
0.015895
  0
VERTEX
  8
0
 10
207.658693
 20
113.627724
 42
0.088522
  0
VERTEX
  8
0
 10
208.924536
 20
113.367290
 42
0.115984
  0
VERTEX
  8
0
 10
210.037889
 20
113.598327
 42
0.036139
  0
VERTEX
  8
0
 10
211.539462
 20
114.433899
 42
0.180935
  0
VERTEX
  8
0
 10
216.933755
 20
121.789598
 42
0.024373
  0
VERTEX
  8
0
 10
221.303736
 20
140.793246
 42
0.016348
  0
VERTEX
  8
0
 10
225.790976
 20
171.609351
 42
0.003400
  0
VERTEX
  8
0
 10
231.528867
 20
226.000000
 42
-0.004612
  0
VERTEX
  8
0
 10
237.021914
 20
276.886463
 42
-0.004274
  0
VERTEX
  8
0
 10
243.583001
 20
328.973643
 42
-0.001562
  0
VERTEX
  8
0
 10
250.279090
 20
377.553060
 42
-0.088051
  0
VERTEX
  8
0
 10
253.098835
 20
386.184675
 42
-0.146632
  0
VERTEX
  8
0
 10
255.311653
 20
388.409972
 42
-0.060494
  0
VERTEX
  8
0
 10
259.303985
 20
389.986901
 42
-0.036902
  0
VERTEX
  8
0
 10
265.541674
 20
391.132071
 42
-0.010744
  0
VERTEX
  8
0
 10
275.279538
 20
391.974634
 42
0.015648
  0
VERTEX
  8
0
 10
288.409862
 20
393.240586
 42
0.051310
  0
VERTEX
  8
0
 10
296.885952
 20
395.224689
 42
0.083606
  0
VERTEX
  8
0
 10
302.307240
 20
398.181413
 42
0.127914
  0
VERTEX
  8
0
 10
305.531110
 20
402.420215
 42
0.099791
  0
VERTEX
  8
0
 10
306.370269
 20
406.627841
 42
0.112329
  0
VERTEX
  8
0
 10
305.448309
 20
410.641468
 42
0.100817
  0
VERTEX
  8
0
 10
302.755779
 20
414.179890
 42
0.067235
  0
VERTEX
  8
0
 10
298.496152
 20
417.001863
 42
0.041458
  0
VERTEX
  8
0
 10
295.912593
 20
417.997908
 42
0.022040
  0
VERTEX
  8
0
 10
292.581099
 20
418.816826
 42
0.018015
  0
VERTEX
  8
0
 10
288.439185
 20
419.489210
 42
0.009890
  0
VERTEX
  8
0
 10
283.328986
 20
420.028416
 42
0.016510
  0
VERTEX
  8
0
 10
267.454112
 20
420.859899
 42
0.002108
  0
VERTEX
  8
0
 10
233.277089
 20
421.375895
 42
0.002062
  0
VERTEX
  8
0
 10
199.063957
 20
421.607080
 42
0.017291
  0
SEQEND
  0
ENDSEC
  0
EOF
