<?xml version="1.0" standalone="no"?>
<!DOCTYPE svg PUBLIC "-//W3C//DTD SVG 20010904//EN"
 "http://www.w3.org/TR/2001/REC-SVG-20010904/DTD/svg10.dtd">
<svg version="1.0" xmlns="http://www.w3.org/2000/svg"
 width="548.000000pt" height="268.000000pt" viewBox="0 0 548.000000 268.000000"
 preserveAspectRatio="xMidYMid meet">

<g transform="translate(0.000000,268.000000) scale(0.100000,-0.100000)"
fill="#000000" stroke="none">
<path d="M430 2402 c-8 -3 -18 -10 -22 -16 -4 -6 -8 -87 -8 -181 -1 -93 -5
-222 -9 -285 -9 -123 -8 -135 16 -144 39 -15 51 28 55 207 1 60 6 113 9 119 9
15 76 -173 93 -262 3 -14 12 -34 20 -45 19 -26 47 -11 60 31 5 16 21 65 36
109 15 44 35 105 45 135 35 108 41 92 49 -119 4 -110 9 -148 20 -159 12 -13
18 -13 31 -2 13 11 15 51 13 314 -3 293 -4 301 -23 301 -14 0 -27 -15 -44 -50
-13 -27 -28 -58 -33 -68 -5 -9 -18 -43 -29 -75 -11 -31 -29 -75 -38 -97 -10
-22 -26 -62 -36 -88 -10 -26 -22 -46 -27 -45 -5 2 -20 37 -33 78 -13 41 -43
134 -66 207 -22 72 -46 134 -53 136 -6 2 -18 2 -26 -1z"/>
<path d="M4705 2388 c-54 -29 -68 -88 -44 -184 9 -33 23 -55 57 -84 24 -22 51
-40 58 -40 8 0 14 -3 14 -7 1 -5 22 -23 49 -42 69 -49 93 -112 66 -172 -17
-36 -21 -39 -57 -39 -56 0 -75 14 -83 59 -13 80 -77 111 -83 41 -5 -50 13
-101 46 -133 52 -50 184 -57 228 -13 25 25 44 77 44 118 -1 86 -54 160 -165
228 -84 51 -93 62 -100 124 -10 76 -4 86 47 86 53 -1 80 -20 93 -68 9 -32 15
-37 43 -40 33 -3 37 2 32 43 -4 37 -30 75 -72 105 -34 25 -50 30 -97 30 -31 0
-65 -6 -76 -12z"/>
<path d="M1867 2366 c-3 -7 26 -76 64 -152 l69 -139 -2 -155 c-2 -169 3 -200
33 -200 29 0 38 35 50 203 12 168 0 132 122 358 33 60 32 89 -4 89 -25 0 -53
-33 -93 -110 -16 -30 -37 -65 -47 -78 l-18 -24 -15 35 c-8 19 -37 69 -66 111
-50 74 -81 94 -93 62z"/>
<path d="M3235 2370 c-11 -18 -5 -603 6 -617 17 -20 47 -15 55 9 3 12 6 84 6
160 0 76 3 140 8 143 8 5 62 -145 88 -244 12 -48 22 -66 40 -74 17 -8 25 -8
30 0 4 6 29 84 56 173 58 189 62 188 77 -25 6 -77 16 -146 22 -153 5 -7 20
-12 31 -10 20 3 21 8 18 98 -2 52 -7 192 -10 310 l-7 215 -26 3 c-14 2 -30 -3
-36 -10 -6 -7 -32 -75 -58 -151 -26 -76 -57 -163 -70 -194 -25 -62 -29 -60
-55 22 -7 22 -16 45 -20 50 -4 6 -13 35 -20 65 -16 66 -67 210 -82 227 -12 15
-44 17 -53 3z"/>
<path d="M4161 1508 c-1 -17 -107 -18 -2081 -18 l-2080 0 0 -85 0 -85 2740 0
2740 0 0 85 0 85 -654 0 c-615 0 -655 1 -659 18 -4 16 -5 16 -6 0z"/>
<path d="M1903 1038 c-7 -8 -10 -140 -9 -350 1 -410 -8 -383 134 -372 86 6 93
9 98 31 10 40 -11 53 -87 53 l-69 0 0 123 c0 67 4 127 8 133 4 6 34 15 67 19
70 8 99 28 85 56 -8 14 -25 19 -83 21 l-72 3 -3 106 -3 106 32 7 c17 3 51 6
74 6 24 0 50 3 59 6 21 8 21 50 0 58 -31 12 -221 7 -231 -6z"/>
<path d="M3400 1020 c-16 -17 -35 -51 -42 -73 -19 -64 -16 -273 6 -472 8 -68
53 -151 93 -170 61 -29 150 -17 160 23 9 37 -17 52 -77 45 l-48 -6 -21 41
c-29 56 -41 158 -42 337 -1 125 2 157 17 188 15 32 22 37 41 32 31 -7 73 4 73
20 0 30 -36 57 -83 62 -43 5 -49 3 -77 -27z"/>
<path d="M5039 1026 c-9 -18 -9 -54 0 -133 6 -59 11 -127 11 -150 l0 -43 -69
0 c-82 0 -74 -13 -96 155 -22 164 -29 185 -65 185 -16 0 -30 -7 -34 -16 -3 -9
5 -109 19 -223 53 -443 59 -476 89 -497 57 -39 67 -6 45 141 -10 66 -18 128
-18 137 -1 19 12 23 95 33 l52 5 6 -57 c12 -99 36 -227 48 -250 8 -16 20 -23
39 -23 36 0 47 34 31 99 -7 25 -16 93 -22 149 -5 57 -12 107 -14 111 -2 3 -7
49 -10 101 -15 235 -25 285 -59 294 -34 9 -37 8 -48 -18z"/>
<path d="M414 1007 c-17 -10 -18 -33 -1 -44 6 -4 37 -10 67 -13 48 -4 55 -8
52 -25 -1 -11 -9 -78 -17 -150 -8 -71 -22 -189 -30 -260 -19 -167 -19 -219 0
-235 37 -30 47 11 75 305 13 127 39 321 47 341 3 9 21 14 52 14 26 0 55 6 65
13 22 16 12 45 -18 52 -39 8 -277 10 -292 2z"/>
</g>
</svg>
