<?xml version="1.0" encoding="UTF-8" standalone="no"?>
<!-- Created with Inkscape (http://www.inkscape.org/) -->

<svg
   version="1.1"
   id="svg1"
   width="960"
   height="540"
   viewBox="0 0 960 540"
   sodipodi:docname="myms-tech-logo_inc.svg"
   inkscape:version="1.4 (86a8ad7, 2024-10-11)"
   inkscape:export-filename="myms-tech-logo_inc.png"
   inkscape:export-xdpi="96"
   inkscape:export-ydpi="96"
   xmlns:inkscape="http://www.inkscape.org/namespaces/inkscape"
   xmlns:sodipodi="http://sodipodi.sourceforge.net/DTD/sodipodi-0.dtd"
   xmlns="http://www.w3.org/2000/svg"
   xmlns:svg="http://www.w3.org/2000/svg">
  <defs
     id="defs1" />
  <sodipodi:namedview
     id="namedview1"
     pagecolor="#ffffff"
     bordercolor="#000000"
     borderopacity="0.25"
     inkscape:showpageshadow="2"
     inkscape:pageopacity="0.0"
     inkscape:pagecheckerboard="0"
     inkscape:deskcolor="#d1d1d1"
     inkscape:zoom="1.5092593"
     inkscape:cx="484.67485"
     inkscape:cy="270"
     inkscape:window-width="1920"
     inkscape:window-height="1017"
     inkscape:window-x="-8"
     inkscape:window-y="-8"
     inkscape:window-maximized="1"
     inkscape:current-layer="g1"
     inkscape:export-bgcolor="#ffffffff" />
  <g
     inkscape:groupmode="layer"
     inkscape:label="Image"
     id="g1">
    <path
       d="m 249.93974,226.60254 c -1.00586,-0.40466 -1.15179,-6.29774 -0.69762,-28.17105 0.7082,-34.10813 0.71464,-34.15936 4.29655,-34.15936 2.40415,0 2.90386,0.57669 4.11596,4.75 0.75877,2.6125 1.95527,6.1 2.65889,7.75 0.70362,1.65 2.01838,5.7 2.92168,9 3.25882,11.90539 6.35481,21 7.14881,21 0.44548,0 1.7931,-2.475 2.9947,-5.5 1.2016,-3.025 2.83246,-7.075 3.62413,-9 0.79168,-1.925 2.42414,-5.975 3.6277,-9 3.66932,-9.22239 4.15562,-10.34142 6.51864,-15 1.49171,-2.94083 2.93742,-4.5 4.17254,-4.5 1.80502,0 1.90152,1.33341 2.1475,29.67102 0.22968,26.46043 0.079,29.84961 -1.39286,31.32143 -3.31806,3.31807 -4.24928,0.11284 -5.08337,-17.49684 -0.47354,-9.99759 -1.17524,-16.43562 -1.78132,-16.34332 -0.55,0.0838 -1.85298,2.78376 -2.8955,6 -1.04253,3.21624 -3.13038,9.22271 -4.63968,13.34771 -1.5093,4.125 -3.04775,8.93141 -3.41878,10.6809 -1.63191,7.69486 -6.60905,5.92951 -8.57857,-3.04274 -1.79404,-8.1729 -7.37935,-24.13816 -8.44452,-24.13816 -0.53435,0 -1.05067,1.35 -1.14736,3 -0.0967,1.65 -0.44552,8.5786 -0.77516,15.39688 -0.66096,13.6715 -1.52127,15.98282 -5.37236,14.43353 z"
       id="path65" />
    <path
       d="m 686.21167,228.36828 c -6.38282,-2.80024 -11.10692,-15.68771 -7,-19.09615 1.20134,-0.99703 1.84843,-0.97819 3.25,0.0946 0.9625,0.73671 1.90246,1.43177 2.0888,1.54458 0.18634,0.1128 0.77241,2.13492 1.30237,4.4936 1.33131,5.92523 2.39654,6.86723 7.76567,6.86723 4.08532,0 4.87414,-0.35922 6.37755,-2.90429 0.94359,-1.59736 1.71561,-3.86182 1.71561,-5.03212 0,-2.61848 -2.47233,-8.69895 -4.21362,-10.36302 -2.61016,-2.49442 -9.598,-7.70058 -10.33589,-7.70058 -1.61234,0 -7.35565,-5.11047 -9.32576,-8.29818 -2.72754,-4.41325 -3.80896,-13.63573 -2.08652,-17.79406 2.39602,-5.78452 12.4349,-7.74769 19.96759,-3.9048 4.58793,2.34059 8.9942,8.30276 8.9942,12.17016 0,3.2486 -1.28775,4.22246 -4.51303,3.41296 -1.77112,-0.44452 -2.5721,-1.52293 -3.05905,-4.1186 -0.85343,-4.54916 -3.71584,-6.46748 -9.65043,-6.46748 h -4.77749 v 4.85078 c 0,7.96174 1.55373,10.88026 7.61275,14.29976 7.62784,4.30489 15.11447,11.3604 17.41642,16.41349 3.30777,7.26102 2.1953,14.94073 -2.95768,20.41766 -1.6426,1.74587 -15.26846,2.56354 -18.57149,1.11446 z"
       id="path64" />
    <path
       d="m 571.94984,230.0591 c -0.59775,-0.72024 -1.55278,-7.94957 -2.12228,-16.06518 -1.31831,-18.78648 -2.20065,-20.62629 -5.12289,-10.68197 -1.20574,4.1031 -3.01098,9.93518 -4.01164,12.96018 -1.00067,3.025 -2.10976,6.93141 -2.46466,8.6809 -1.52985,7.54161 -6.55979,6.17289 -8.45617,-2.30104 -0.7162,-3.20032 -1.8909,-7.18251 -2.61044,-8.84931 -0.71954,-1.6668 -2.31565,-6.27296 -3.54691,-10.2359 -1.23126,-3.96294 -2.61318,-6.97388 -3.07092,-6.69098 -0.45774,0.2829 -0.83226,7.40771 -0.83226,15.8329 0,11.76814 -0.31828,15.58269 -1.37325,16.45824 -1.85226,1.53724 -4.52564,0.37015 -5.16563,-2.25511 -0.28689,-1.17684 -0.3955,-15.1837 -0.24137,-31.12638 0.25205,-26.07009 0.44718,-29.01878 1.9393,-29.30581 2.96779,-0.57087 5.27152,3.41293 9.23085,15.96274 6.02664,19.10255 8.80096,26.82975 9.63278,26.82975 0.41984,0 1.08009,-0.7875 1.46722,-1.75 1.08274,-2.69192 10.56009,-29.41226 11.47788,-32.36061 2.01502,-6.47312 5.25886,-8.82634 7.77372,-5.63939 0.54251,0.6875 1.34279,12.275 1.77838,25.75 1.22817,37.99293 1.30673,35.45333 -1.10739,35.79826 -1.14812,0.16404 -2.57657,-0.29104 -3.17432,-1.01129 z"
       id="path63" />
    <path
       d="m 410.92081,231.02213 c -0.62345,-0.75242 -1.0182,-7.61907 -0.99165,-17.25 0.0422,-15.29524 -0.0751,-16.26429 -2.66232,-22 -4.56259,-10.115 -5.93143,-12.83717 -8.69129,-17.2841 -3.48174,-5.61007 -2.40267,-10.15843 1.76759,-7.45059 1.63161,1.05944 9.55191,13.03604 11.71593,17.71613 1.76549,3.81818 1.90046,3.90019 3.29187,2 0.798,-1.08979 3.22015,-5.13144 5.38255,-8.98144 2.1624,-3.85 4.5806,-7.82358 5.37378,-8.83018 1.70935,-2.16928 5.94499,-1.89987 6.38398,0.40607 0.165,0.86674 -2.83096,7.32074 -6.6577,14.34222 -6.72756,12.34405 -6.97721,13.05272 -7.54725,21.42411 -1.16413,17.09583 -2.33761,25.39299 -3.71475,26.26554 -1.84003,1.16583 -2.43675,1.10736 -3.65074,-0.35776 z"
       id="path62" />
    <path
       d="m 406.21167,372.44827 c -7.28244,-0.5896 -7.0042,0.88298 -6.96373,-36.85489 0.0199,-18.6017 0.384,-34.38377 0.80901,-35.07127 0.53773,-0.86983 3.92339,-1.25 11.13195,-1.25 12.06195,0 13.52277,0.38759 13.52277,3.58794 0,2.76975 -1.46812,3.2564 -11,3.64623 l -6.5,0.26583 v 11 11 l 7.32962,0.56981 c 12.10696,0.9412 11.8126,5.29145 -0.4946,7.30945 l -6.83502,1.12074 -0.27872,13.20561 -0.27871,13.20561 7.17395,0.29439 c 5.53056,0.22695 7.42585,0.69527 8.2736,2.04439 2.68793,4.2776 -4.25766,6.86793 -15.89012,5.92616 z"
       id="path61" />
    <path
       d="m 699.7157,373.96144 c -3.21719,-1.60394 -4.2367,-6.58726 -8.01758,-39.18933 -1.08433,-9.35 -2.41779,-20.24415 -2.96324,-24.20922 -0.54546,-3.96507 -0.72567,-7.90257 -0.40048,-8.75 0.75019,-1.95497 4.74966,-2.00193 6.34925,-0.0745 0.66928,0.80643 2.07559,7.6558 3.12514,15.22082 1.04955,7.56502 2.16239,14.55522 2.47297,15.53376 0.46979,1.48018 1.72976,1.77918 7.4973,1.77918 h 6.93261 v -4.96078 c 0,-2.72843 -0.4974,-9.53294 -1.10533,-15.12113 -1.48822,-13.67998 0.40194,-17.85938 5.95537,-13.16809 2.28336,1.92888 2.49442,3.18073 4.15861,24.6655 0.59284,7.65353 1.29209,14.26209 1.55389,14.6857 0.26181,0.4236 0.93512,5.63663 1.49626,11.58449 0.56114,5.94787 1.51148,12.46104 2.11187,14.47372 1.51317,5.07254 0.43281,8.84059 -2.53473,8.84059 -3.656,0 -5.38638,-2.9053 -6.55153,-11 -2.51624,-17.48104 -3.15124,-21.40016 -3.52852,-21.77744 -0.21922,-0.21923 -3.39469,-0.0777 -7.05659,0.31442 -4.34189,0.46497 -6.84944,1.21188 -7.20831,2.1471 -0.30267,0.78875 0.18562,6.245 1.08509,12.125 0.89947,5.88001 1.63282,11.87332 1.62966,13.31848 -0.008,3.68563 -1.96214,5.07716 -5.00171,3.56177 z"
       id="path60" />
    <path
       d="m 557.21167,374.55287 c -3.04967,-0.74295 -5.34857,-3.18881 -8.04714,-8.56154 -3.00232,-5.97749 -3.25006,-7.66068 -4.43879,-30.15787 -0.99868,-18.90044 -0.53833,-23.41732 3.13679,-30.77791 2.37885,-4.7644 5.04106,-6.16827 10.14837,-5.35158 3.67972,0.58841 7.70077,3.5887 7.70077,5.7459 0,1.38825 -4.35825,2.66757 -7.22238,2.12006 -5.4916,-1.04978 -7.10194,8.20347 -5.77774,33.19983 0.70769,13.35886 1.15805,16.16756 3.36553,20.98934 l 2.54852,5.5667 5.5873,-0.18258 c 6.29533,-0.20572 8.03127,0.8711 7.13853,4.42808 -0.81006,3.22751 -7.41409,4.62007 -14.13976,2.98157 z"
       id="path59" />
    <path
       d="m 257.02396,374.64357 c -0.34372,-0.89572 -0.0849,-6.85822 0.57527,-13.25 0.66013,-6.39178 1.87451,-18.82142 2.69863,-27.62142 0.82412,-8.8 1.91249,-17.53277 2.41861,-19.40615 0.50612,-1.87339 0.7204,-3.72948 0.47617,-4.12464 -0.24423,-0.39517 -2.96877,-0.92786 -6.05455,-1.18375 -5.34552,-0.4433 -7.81833,-1.94041 -7.07837,-4.28546 0.35479,-1.12438 24.26645,-1.93966 29.40195,-1.00247 2.57086,0.46916 3.25,1.08167 3.25,2.93115 0,2.60758 -2.14135,3.53533 -8.21146,3.55767 -3.4544,0.0127 -3.77532,0.27337 -4.63362,3.76365 -1.2708,5.16769 -2.85549,17.31288 -5.22095,40.01378 -1.10402,10.59508 -2.26396,19.93258 -2.57763,20.75 -0.76511,1.99385 -4.26219,1.89515 -5.04405,-0.14236 z"
       id="path58" />
    <path
       d="m 226.56442,258.84882 h 506.87116 v 5.30062 H 226.56442 Z"
       id="rect51" />
  </g>
</svg>
